<svg width="19" height="20" viewBox="0 0 19 20" fill="none" xmlns="http://www.w3.org/2000/svg">
<path d="M16.6157 10.54C16.656 10.24 16.6762 9.93 16.6762 9.6C16.6762 9.28 16.656 8.96 16.6056 8.66L18.6525 7.08C18.7407 7.0079 18.801 6.9077 18.823 6.79647C18.8451 6.68524 18.8276 6.56987 18.7735 6.47L16.8375 3.15C16.7802 3.04986 16.6892 2.97292 16.5804 2.93269C16.4716 2.89246 16.352 2.89151 16.2426 2.93L13.8327 3.89C13.3285 3.51 12.7941 3.19 12.1992 2.95L11.8362 0.410003C11.8183 0.295533 11.7596 0.19121 11.6708 0.115979C11.582 0.0407481 11.469 -0.000401505 11.3522 2.9534e-06H7.48016C7.23816 2.9534e-06 7.04658 0.170003 7.00625 0.410003L6.64325 2.95C6.04833 3.19 5.50383 3.52 5.00975 3.89L2.59983 2.93C2.378 2.85 2.12591 2.93 2.00491 3.15L0.0789959 6.47C-0.0420041 6.68 -0.00167088 6.94 0.199996 7.08L2.24691 8.66C2.1965 8.96 2.15616 9.29 2.15616 9.6C2.15616 9.91 2.17633 10.24 2.22675 10.54L0.179829 12.12C0.0916242 12.1921 0.0313558 12.2923 0.00929229 12.4035C-0.0127712 12.5148 0.00473542 12.6301 0.0588293 12.73L1.99483 16.05C2.11583 16.27 2.36791 16.34 2.58975 16.27L4.99966 15.31C5.50383 15.69 6.03825 16.01 6.63316 16.25L6.99616 18.79C7.04658 19.03 7.23816 19.2 7.48016 19.2H11.3522C11.5942 19.2 11.7958 19.03 11.8261 18.79L12.1891 16.25C12.784 16.01 13.3285 15.69 13.8226 15.31L16.2325 16.27C16.4543 16.35 16.7064 16.27 16.8274 16.05L18.7634 12.73C18.8844 12.51 18.834 12.26 18.6424 12.12L16.6157 10.54ZM9.41616 13.2C7.41966 13.2 5.78616 11.58 5.78616 9.6C5.78616 7.62 7.41966 6 9.41616 6C11.4127 6 13.0462 7.62 13.0462 9.6C13.0462 11.58 11.4127 13.2 9.41616 13.2Z" fill="#475569"/>
</svg>
